    <?xml version="1.0" encoding="UTF-8"?>
    <svg id="b" xmlns="http://www.w3.org/2000/svg" width="9.5mm" height="6.4mm" xmlns:xlink="http://www.w3.org/1999/xlink" viewBox="0 0 27 18">
        <defs>
            <clipPath id="d"><rect width="27" height="18" style="fill:none; stroke-width:0px;"/></clipPath>
        </defs>
        <g id="c">
            <g style="clip-path:url(#d);">
                <path d="m4.4,18H0V.4h4.3v3C5.1,1.4,7.4,0,10.2,0,14.4,0,16.8,3.1,16.8,7.5v10.6h-4.4v-9.8c0-2.5-1.1-4.3-3.8-4.3s-4.1,1.8-4.1,4.3v9.8Z" style="fill:#fff; stroke-width:0px;"/>
                <path d="m27,3.7c0,1.8-1.4,3.2-3.2,3.2s-3.2-1.4-3.2-3.2,1.4-3.2,3.2-3.2,3.2,1.4,3.2,3.2" style="fill:#fff; stroke-width:0px;"/><path d="m27,14.8c0,1.8-1.4,3.2-3.2,3.2s-3.2-1.4-3.2-3.2,1.4-3.2,3.2-3.2,3.2,1.4,3.2,3.2" style="fill:#fff; stroke-width:0px;"/>
            </g>
        </g>
    </svg>